<?xml version="1.0" encoding="utf-8"?>
<svg xmlns="http://www.w3.org/2000/svg" height="128" width="128" viewBox="0 0 128 128">
  <g>
    <rect height="128" width="128" fill="#CCCCCC" />
    <path id="path1" transform="rotate(0,64,64) translate(33.5000004768372,24) scale(2.5,2.5)  " fill="#ECF0F1" d="M19.100018,23.5C18.299969,23.5 17.699993,24.300003 17.699993,25.199997 17.699993,26.099998 18.299969,26.900002 19.100018,26.800003 19.900004,26.800003 20.499979,26 20.499979,25.099998 20.499979,24.199997 19.900004,23.5 19.100018,23.5z M18.900005,19.900002C18.400005,19.900002 17.999981,20.400002 17.999981,21 17.999981,21.599998 18.400005,22 18.900005,22 19.400005,22 19.799967,21.5 19.799967,20.900002 19.699991,20.300003 19.299969,19.900002 18.900005,19.900002z M1.400023,19.199997L1.400023,22.400002 4.200008,23.699997 4.200008,20.300003z M20.799967,12.199997L14.499985,12.400002 14.499985,15.099998 20.799967,14.800003z M1.9999982,10L1.9999982,10.099998 1.2999864,12.199997 1.9999982,14.599998 3.2999846,14.599998 3.7999841,12.300003 3.2999846,10z M14.499985,7.5999985L14.499985,10.800003 23.299965,10.699997 23.299965,8z M14.499985,3.0999985L14.499985,6.3000031 23.299965,6.8000031 23.299965,3.8000031z M12.400012,0L24.4,1 24.4,30 12.400012,32z M11.600024,0L11.600024,32 0,25.599998 0,2.5999985z" />
  </g>
</svg>

